<svg width="18" height="14" viewBox="0 0 18 14" fill="none" xmlns="http://www.w3.org/2000/svg">
<path d="M3.1393 6.86033L0.359297 9.65033C0.169297 9.85033 0.169297 10.1603 0.359297 10.3603L3.1393 13.1503C3.4493 13.4703 3.9893 13.2403 3.9893 12.8003V11.0003H9.9993C10.5493 11.0003 10.9993 10.5503 10.9993 10.0003C10.9993 9.45033 10.5493 9.00033 9.9993 9.00033H3.9893V7.21033C3.9893 6.76033 3.4493 6.54033 3.1393 6.86033ZM17.6493 3.65033L14.8693 0.860332C14.5593 0.540332 14.0193 0.770332 14.0193 1.21033V3.00033H7.9993C7.4493 3.00033 6.9993 3.45033 6.9993 4.00033C6.9993 4.55033 7.4493 5.00033 7.9993 5.00033H14.0093V6.79033C14.0093 7.24033 14.5493 7.46033 14.8593 7.14033L17.6393 4.35033C17.8393 4.16033 17.8393 3.84033 17.6493 3.65033Z" fill="#5C6366"/>
</svg>
