<svg width="29" height="23" viewBox="0 0 29 23" fill="none" xmlns="http://www.w3.org/2000/svg">
<path d="M2.47859 19.5863C4.46617 21.741 7.47375 22.8333 11.4163 22.8333H12.833V18.8397L11.694 18.6116C9.75317 18.2234 8.40309 17.4598 7.68059 16.3393C7.3036 15.7356 7.0898 15.0444 7.06009 14.3333H11.4163C11.7921 14.3333 12.1524 14.184 12.4181 13.9183C12.6837 13.6526 12.833 13.2923 12.833 12.9166V2.99992C12.833 1.43734 11.5623 0.166586 9.99967 0.166586H1.49967C1.12395 0.166586 0.763613 0.31584 0.497936 0.581516C0.23226 0.847193 0.0830044 1.20753 0.0830044 1.58325V8.66659L0.0872545 12.8018C0.0745045 12.9591 -0.194662 16.6849 2.47859 19.5863ZM25.583 0.166586H17.083C16.7073 0.166586 16.3469 0.31584 16.0813 0.581516C15.8156 0.847193 15.6663 1.20753 15.6663 1.58325V8.66659L15.6706 12.8018C15.6578 12.9591 15.3887 16.6849 18.0619 19.5863C20.0495 21.741 23.0571 22.8333 26.9997 22.8333H28.4163V18.8397L27.2773 18.6116C25.3365 18.2234 23.9864 17.4598 23.2639 16.3393C22.8869 15.7356 22.6731 15.0444 22.6434 14.3333H26.9997C27.3754 14.3333 27.7357 14.184 28.0014 13.9183C28.2671 13.6526 28.4163 13.2923 28.4163 12.9166V2.99992C28.4163 1.43734 27.1456 0.166586 25.583 0.166586Z" fill="#1A97D4"/>
</svg>
