<svg width="12" height="14" viewBox="0 0 12 14" fill="none" xmlns="http://www.w3.org/2000/svg">
<path d="M0.554688 5.54102C0.376953 5.54102 0.25 5.69336 0.25 5.8457V12.4473C0.25 13.1328 0.783203 13.666 1.46875 13.666H10.4062C11.0664 13.666 11.625 13.1328 11.625 12.4473V5.8457C11.625 5.69336 11.4727 5.54102 11.3203 5.54102H0.554688ZM11.625 4.42383V3.50977C11.625 2.84961 11.0664 2.29102 10.4062 2.29102H9.1875V0.970703C9.1875 0.818359 9.03516 0.666016 8.88281 0.666016H7.86719C7.68945 0.666016 7.5625 0.818359 7.5625 0.970703V2.29102H4.3125V0.970703C4.3125 0.818359 4.16016 0.666016 4.00781 0.666016H2.99219C2.81445 0.666016 2.6875 0.818359 2.6875 0.970703V2.29102H1.46875C0.783203 2.29102 0.25 2.84961 0.25 3.50977V4.42383C0.25 4.60156 0.376953 4.72852 0.554688 4.72852H11.3203C11.4727 4.72852 11.625 4.60156 11.625 4.42383Z" fill="#1A97D4"/>
</svg>
