<svg width="24" height="24" viewBox="0 0 24 24" fill="none" xmlns="http://www.w3.org/2000/svg">
<path d="M21.1182 17.2798H2.87852C2.61332 17.2798 2.39852 17.4946 2.39852 17.7598V18.7198C2.39852 18.985 2.61332 19.1998 2.87852 19.1998H21.1182C21.3834 19.1998 21.5982 18.985 21.5982 18.7198V17.7598C21.5982 17.4946 21.3834 17.2798 21.1182 17.2798ZM4.81499 14.078C5.00338 14.2832 5.26798 14.3996 5.54488 14.3993L9.46102 14.3939C9.77007 14.3935 10.0747 14.3203 10.3502 14.1803L19.0789 9.75085C19.8811 9.34375 20.6001 8.76266 21.0894 8.00157C21.6387 7.14719 21.6984 6.5289 21.4815 6.0921C21.2652 5.65501 20.7393 5.33401 19.7341 5.26861C18.8386 5.21041 17.9479 5.44621 17.1457 5.85301L14.1904 7.35268L7.62954 4.89092C7.55066 4.83778 7.45901 4.80667 7.36408 4.80082C7.26914 4.79496 7.17437 4.81457 7.08955 4.85762L5.11708 5.85871C4.79699 6.021 4.71959 6.4482 4.96198 6.71459L9.64851 9.65755L6.55226 11.2289L4.38179 10.1348C4.30701 10.0971 4.22442 10.0776 4.14068 10.0777C4.05693 10.0778 3.97438 10.0976 3.8997 10.1354L2.69582 10.7465C2.38262 10.9055 2.30012 11.3201 2.52872 11.5889L4.81499 14.078Z" fill="#1A97D4"/>
</svg>
