<svg width="22" height="19" viewBox="0 0 22 19" fill="none" xmlns="http://www.w3.org/2000/svg">
<path d="M21.0597 16.2803H0.539992C0.241646 16.2803 0 16.4951 0 16.7603V17.7203C0 17.9854 0.241646 18.2002 0.539992 18.2002H21.0597C21.358 18.2002 21.5997 17.9854 21.5997 17.7203V16.7603C21.5997 16.4951 21.358 16.2803 21.0597 16.2803Z" fill="#1A97D4"/>
<path d="M1.00102 6.38997C0.98766 6.66828 1.10555 6.93768 1.32606 7.13327L4.44563 9.89858C4.6918 10.1168 4.99233 10.2805 5.32288 10.3763L15.7901 13.4163C16.7521 13.6957 17.7864 13.7933 18.781 13.6011C19.8976 13.3853 20.437 12.9904 20.6119 12.5281C20.7876 12.0661 20.6246 11.4673 19.8769 10.7102C19.2108 10.0358 18.3147 9.57275 17.353 9.29316L13.8091 8.26391L10.5483 1.88392C10.5278 1.79057 10.4796 1.70377 10.4088 1.6325C10.3379 1.56123 10.2469 1.50808 10.1452 1.47855L7.77973 0.791673C7.39599 0.680093 6.99459 0.927435 6.9755 1.28721L8.3625 6.68207L4.64943 5.60382L3.79317 3.29543C3.76368 3.21589 3.71355 3.14364 3.64685 3.0845C3.58015 3.02535 3.49874 2.98098 3.40919 2.95496L1.96539 2.5358C1.58976 2.42676 1.19433 2.66159 1.16235 3.0133L1.00102 6.38997Z" fill="#1A97D4"/>
</svg>
