<svg width="24" height="24" viewBox="0 0 24 24" fill="none" xmlns="http://www.w3.org/2000/svg">
<path d="M5.16641 9.8998C4.95313 9.8998 4.80078 10.0826 4.80078 10.2654V18.1873C4.80078 19.01 5.44063 19.6498 6.26328 19.6498H16.9883C17.7805 19.6498 18.4508 19.01 18.4508 18.1873V10.2654C18.4508 10.0826 18.268 9.8998 18.0852 9.8998H5.16641ZM18.4508 8.55918V7.4623C18.4508 6.67012 17.7805 5.9998 16.9883 5.9998H15.5258V4.41543C15.5258 4.23262 15.343 4.0498 15.1602 4.0498H13.9414C13.7281 4.0498 13.5758 4.23262 13.5758 4.41543V5.9998H9.67578V4.41543C9.67578 4.23262 9.49297 4.0498 9.31016 4.0498H8.09141C7.87813 4.0498 7.72578 4.23262 7.72578 4.41543V5.9998H6.26328C5.44063 5.9998 4.80078 6.67012 4.80078 7.4623V8.55918C4.80078 8.77246 4.95313 8.9248 5.16641 8.9248H18.0852C18.268 8.9248 18.4508 8.77246 18.4508 8.55918Z" fill="#1A97D4"/>
</svg>
