<svg width="24" height="24" viewBox="0 0 24 24" fill="none" xmlns="http://www.w3.org/2000/svg">
<path d="M8.40002 9.60039C9.3548 9.60039 10.2705 9.22111 10.9456 8.54598C11.6207 7.87084 12 6.95517 12 6.00039C12 5.04561 11.6207 4.12994 10.9456 3.45481C10.2705 2.77968 9.3548 2.40039 8.40002 2.40039C7.44524 2.40039 6.52957 2.77968 5.85443 3.45481C5.1793 4.12994 4.80002 5.04561 4.80002 6.00039C4.80002 6.95517 5.1793 7.87084 5.85443 8.54598C6.52957 9.22111 7.44524 9.60039 8.40002 9.60039ZM17.4 10.8004C18.1957 10.8004 18.9587 10.4843 19.5213 9.92171C20.0839 9.3591 20.4 8.59604 20.4 7.80039C20.4 7.00474 20.0839 6.24168 19.5213 5.67907C18.9587 5.11646 18.1957 4.80039 17.4 4.80039C16.6044 4.80039 15.8413 5.11646 15.2787 5.67907C14.7161 6.24168 14.4 7.00474 14.4 7.80039C14.4 8.59604 14.7161 9.3591 15.2787 9.92171C15.8413 10.4843 16.6044 10.8004 17.4 10.8004ZM1.93802 19.714C1.70274 19.5674 1.51377 19.3571 1.39294 19.1076C1.27211 18.8581 1.22437 18.5795 1.25522 18.304C1.47645 16.5653 2.32412 14.9669 3.63939 13.8083C4.95467 12.6498 6.64727 12.0107 8.40002 12.0107C10.1528 12.0107 11.8454 12.6498 13.1606 13.8083C14.4759 14.9669 15.3236 16.5653 15.5448 18.304C15.6144 18.8644 15.3384 19.408 14.8608 19.7128C12.9327 20.9484 10.69 21.6036 8.40002 21.6004C6.1097 21.6042 3.8666 20.9494 1.93802 19.714ZM17.4 19.2004H17.2728C17.3568 18.844 17.3784 18.4672 17.3304 18.0808C17.1253 16.4312 16.4655 14.871 15.4248 13.5748C16.0946 13.3113 16.8102 13.1842 17.5298 13.2011C18.2493 13.218 18.9582 13.3785 19.6148 13.6731C20.2715 13.9678 20.8626 14.3907 21.3535 14.917C21.8445 15.4434 22.2253 16.0625 22.4736 16.738C22.5499 16.9536 22.5485 17.1892 22.4696 17.4039C22.3908 17.6186 22.2394 17.799 22.0416 17.914C20.6409 18.7585 19.0356 19.2034 17.4 19.2004Z" fill="#1A97D4"/>
</svg>
