<svg width="10" height="14" viewBox="0 0 10 14" fill="none" xmlns="http://www.w3.org/2000/svg">
<path d="M4.61293 13.3997C4.84122 13.7548 5.3739 13.7548 5.6022 13.3997C9.30561 8.07284 9.99049 7.5148 9.99049 5.53626C9.99049 2.84748 7.80902 0.666016 5.12024 0.666016C2.4061 0.666016 0.25 2.84748 0.25 5.53626C0.25 7.5148 0.909512 8.07284 4.61293 13.3997ZM5.12024 7.56553C3.97878 7.56553 3.09098 6.67772 3.09098 5.53626C3.09098 4.42016 3.97878 3.50699 5.12024 3.50699C6.23634 3.50699 7.14951 4.42016 7.14951 5.53626C7.14951 6.67772 6.23634 7.56553 5.12024 7.56553Z" fill="#1A97D4"/>
</svg>
