<svg width="15" height="14" viewBox="0 0 15 14" fill="none" xmlns="http://www.w3.org/2000/svg">
<path d="M5.0938 5.54101C5.74026 5.54101 6.36025 5.2842 6.81737 4.82709C7.27449 4.36997 7.5313 3.74998 7.5313 3.10351C7.5313 2.45705 7.27449 1.83706 6.81737 1.37994C6.36025 0.922823 5.74026 0.666016 5.0938 0.666016C4.44734 0.666016 3.82735 0.922823 3.37023 1.37994C2.91311 1.83706 2.6563 2.45705 2.6563 3.10351C2.6563 3.74998 2.91311 4.36997 3.37023 4.82709C3.82735 5.2842 4.44734 5.54101 5.0938 5.54101ZM11.1875 6.35351C11.7263 6.35351 12.2429 6.1395 12.6239 5.75857C13.0048 5.37764 13.2188 4.86098 13.2188 4.32226C13.2188 3.78354 13.0048 3.26689 12.6239 2.88595C12.2429 2.50502 11.7263 2.29101 11.1875 2.29101C10.6488 2.29101 10.1322 2.50502 9.75124 2.88595C9.3703 3.26689 9.1563 3.78354 9.1563 4.32226C9.1563 4.86098 9.3703 5.37764 9.75124 5.75857C10.1322 6.1395 10.6488 6.35351 11.1875 6.35351ZM0.718491 12.3888C0.559189 12.2895 0.431237 12.1471 0.349427 11.9782C0.267617 11.8093 0.235288 11.6206 0.256179 11.4341C0.405968 10.2568 0.979913 9.17456 1.87046 8.39014C2.76101 7.60572 3.90704 7.17296 5.0938 7.17296C6.28056 7.17296 7.42659 7.60572 8.31714 8.39014C9.20769 9.17456 9.78163 10.2568 9.93142 11.4341C9.97855 11.8135 9.79167 12.1816 9.4683 12.3879C8.16281 13.2245 6.64434 13.6682 5.0938 13.666C3.54307 13.6686 2.0243 13.2252 0.718491 12.3888ZM11.1875 12.041H11.1014C11.1583 11.7997 11.1729 11.5446 11.1404 11.2829C11.0015 10.166 10.5548 9.10968 9.85017 8.23201C10.3036 8.05357 10.7882 7.96754 11.2754 7.97898C11.7626 7.99042 12.2426 8.09908 12.6872 8.2986C13.1318 8.49812 13.532 8.78447 13.8644 9.14083C14.1968 9.49718 14.4547 9.91637 14.6228 10.3738C14.6745 10.5198 14.6735 10.6792 14.6201 10.8246C14.5667 10.97 14.4642 11.0922 14.3303 11.17C13.3819 11.7418 12.295 12.043 11.1875 12.041Z" fill="#1A97D4"/>
</svg>
