<svg width="35" height="34" viewBox="0 0 35 34" fill="none" xmlns="http://www.w3.org/2000/svg">
<path d="M17.1449 13.6004C18.4975 13.6004 19.7947 13.0631 20.7511 12.1066C21.7075 11.1502 22.2449 9.853 22.2449 8.50039C22.2449 7.14779 21.7075 5.85058 20.7511 4.89415C19.7947 3.93771 18.4975 3.40039 17.1449 3.40039C15.7923 3.40039 14.495 3.93771 13.5386 4.89415C12.5822 5.85058 12.0449 7.14779 12.0449 8.50039C12.0449 9.853 12.5822 11.1502 13.5386 12.1066C14.495 13.0631 15.7923 13.6004 17.1449 13.6004ZM7.99036 27.928C7.65705 27.7203 7.38934 27.4224 7.21816 27.069C7.04699 26.7155 6.97935 26.3208 7.02306 25.9305C7.33646 23.4673 8.53733 21.2029 10.4006 19.5616C12.2639 17.9204 14.6618 17.0149 17.1449 17.0149C19.6279 17.0149 22.0258 17.9204 23.8891 19.5616C25.7524 21.2029 26.9533 23.4673 27.2667 25.9305C27.3653 26.7244 26.9743 27.4945 26.2977 27.9263C23.5662 29.6767 20.3891 30.6049 17.1449 30.6004C13.9002 30.6058 10.7225 29.6781 7.99036 27.928Z" fill="white"/>
</svg>
