<svg width="29" height="25" viewBox="0 0 29 25" fill="none" xmlns="http://www.w3.org/2000/svg">
<path d="M23.4685 9.375H17.8533L12.7264 0.439453C12.5799 0.195312 12.3357 0 12.0428 0H8.86893C8.33182 0 7.94119 0.537109 8.08768 1.02539L10.4803 9.375H5.49979L3.35135 6.5918C3.20486 6.39648 3.00955 6.25 2.76541 6.25H0.812285C0.275176 6.25 -0.115449 6.73828 0.0310352 7.22656L1.59354 12.5L0.0310352 17.8223C-0.115449 18.3105 0.275176 18.75 0.812285 18.75H2.76541C3.00955 18.75 3.20486 18.6523 3.35135 18.457L5.49979 15.625H10.4803L8.08768 24.0234C7.94119 24.5117 8.33182 25 8.86893 25H12.0428C12.3357 25 12.5799 24.8535 12.7264 24.6094L17.8533 15.625H23.4685C25.1775 15.625 28.156 14.2578 28.156 12.5C28.156 10.791 25.1775 9.375 23.4685 9.375Z" fill="#1A97D4"/>
</svg>
