<svg width="30" height="30" viewBox="0 0 30 30" fill="none" xmlns="http://www.w3.org/2000/svg">
<rect width="30" height="30" fill="white"/>
<path d="M22.5483 12.499H18.0561L13.9545 5.35059C13.8373 5.15527 13.642 4.99902 13.4076 4.99902H10.8686C10.4389 4.99902 10.1264 5.42871 10.2436 5.81934L12.1576 12.499H8.17327L6.45452 10.2725C6.33733 10.1162 6.18108 9.99902 5.98577 9.99902H4.42327C3.99358 9.99902 3.68108 10.3896 3.79827 10.7803L5.04827 14.999L3.79827 19.2568C3.68108 19.6475 3.99358 19.999 4.42327 19.999H5.98577C6.18108 19.999 6.33733 19.9209 6.45452 19.7646L8.17327 17.499H12.1576L10.2436 24.2178C10.1264 24.6084 10.4389 24.999 10.8686 24.999H13.4076C13.642 24.999 13.8373 24.8818 13.9545 24.6865L18.0561 17.499H22.5483C23.9155 17.499 26.2983 16.4053 26.2983 14.999C26.2983 13.6318 23.9155 12.499 22.5483 12.499Z" fill="#1A97D4"/>
</svg>
