<svg width="1440" height="824" viewBox="0 0 1440 824" fill="none" xmlns="http://www.w3.org/2000/svg">
<g filter="url(#filter0_b_7_6259)">
<rect width="1440" height="580" fill="#F2FBFF" fill-opacity="0.7"/>
</g>
<g opacity="0.2" clip-path="url(#clip0_7_6259)">
<path d="M452.096 378.749C457.88 378.749 462.596 383.45 462.596 389.249C462.596 395.048 457.88 399.749 452.096 399.749C446.312 399.749 441.596 395.033 441.596 389.249C441.596 383.465 446.312 378.749 452.096 378.749ZM452.096 396.724C456.219 396.724 459.555 393.372 459.555 389.249C459.555 385.126 456.204 381.774 452.096 381.774C447.988 381.774 444.636 385.126 444.636 389.249C444.636 393.372 447.973 396.709 452.096 396.709V396.724Z" fill="#1A97D4"/>
</g>
<g opacity="0.2" clip-path="url(#clip1_7_6259)">
<path d="M525.98 32.8698C529.769 37.2404 529.305 43.8833 524.923 47.6814C520.541 51.4794 513.9 50.9949 510.112 46.6243C506.323 42.2536 506.798 35.601 511.169 31.8127C515.539 28.0244 522.192 28.4992 525.98 32.8698ZM512.398 44.6427C515.098 47.7581 519.816 48.0844 522.932 45.384C526.047 42.6836 526.385 37.9556 523.694 34.8514C521.003 31.7471 516.275 31.4097 513.16 34.1101C510.044 36.8104 509.709 41.5175 512.409 44.633L512.398 44.6427Z" fill="#1A97D4"/>
</g>
<g opacity="0.2" clip-path="url(#clip2_7_6259)">
<path d="M1222.1 258.749C1227.88 258.749 1232.6 263.45 1232.6 269.249C1232.6 275.048 1227.88 279.749 1222.1 279.749C1216.31 279.749 1211.6 275.033 1211.6 269.249C1211.6 263.465 1216.31 258.749 1222.1 258.749ZM1222.1 276.724C1226.22 276.724 1229.56 273.372 1229.56 269.249C1229.56 265.126 1226.2 261.774 1222.1 261.774C1217.99 261.774 1214.64 265.126 1214.64 269.249C1214.64 273.372 1217.97 276.709 1222.1 276.709V276.724Z" fill="#1A97D4"/>
</g>
<g opacity="0.2" clip-path="url(#clip3_7_6259)">
<path d="M1120.99 536.125C1124.78 540.495 1124.31 547.138 1119.93 550.936C1115.55 554.734 1108.91 554.25 1105.12 549.879C1101.33 545.509 1101.81 538.856 1106.18 535.068C1110.55 531.279 1117.2 531.754 1120.99 536.125ZM1107.41 547.898C1110.11 551.013 1114.82 551.339 1117.94 548.639C1121.06 545.938 1121.39 541.211 1118.7 538.106C1116.01 535.002 1111.28 534.665 1108.17 537.365C1105.05 540.065 1104.72 544.772 1107.42 547.888L1107.41 547.898Z" fill="#1A97D4"/>
</g>
<g opacity="0.2" clip-path="url(#clip4_7_6259)">
<path d="M531.428 415.575L524.575 398.62C523.921 396.995 521.774 396.734 520.728 398.134L509.655 412.811C508.59 414.212 509.412 416.247 511.13 416.452L529.037 418.749C530.755 418.954 532.081 417.199 531.428 415.575Z" fill="#1A97D4"/>
</g>
<g opacity="0.2" clip-path="url(#clip5_7_6259)">
<path d="M550.113 116.937L558.437 100.653C559.236 99.0955 558.027 97.3016 556.284 97.4287L537.941 98.6743C536.185 98.7873 535.185 100.741 536.155 102.174L546.149 117.21C547.119 118.643 549.313 118.495 550.113 116.937Z" fill="#1A97D4"/>
</g>
<g opacity="0.2" clip-path="url(#clip6_7_6259)">
<path d="M980.758 527.388L980.757 527.39L972.434 543.672C972.434 543.672 972.434 543.672 972.434 543.672C971.972 544.57 970.723 544.627 970.19 543.844L960.199 528.812L960.199 528.812L960.194 528.805C959.682 528.049 960.188 526.93 961.216 526.864L961.219 526.863L979.563 525.618L979.568 525.617C980.548 525.546 981.194 526.538 980.758 527.388Z" stroke="#1A97D4" stroke-width="2"/>
</g>
<g opacity="0.2" clip-path="url(#clip7_7_6259)">
<path d="M1293.02 172.46L1282.01 157.856C1280.96 156.456 1278.81 156.759 1278.17 158.383L1271.27 175.425C1270.6 177.054 1271.92 178.807 1273.64 178.561L1291.53 176.144C1293.24 175.898 1294.07 173.86 1293.02 172.46Z" fill="#1A97D4"/>
</g>
<g opacity="0.2" clip-path="url(#clip8_7_6259)">
<path d="M1232.64 533.199L1236.47 515.315C1236.84 513.604 1235.21 512.184 1233.56 512.758L1216.16 518.709C1214.49 519.272 1214.03 521.418 1215.34 522.551L1228.89 534.488C1230.19 535.621 1232.27 534.91 1232.64 533.199Z" fill="#1A97D4"/>
</g>
<g opacity="0.2">
<g clip-path="url(#clip9_7_6259)">
<path d="M1229.76 88.6061C1228.62 89.2503 1227.94 90.173 1227.77 91.4962C1227.68 92.1404 1227.54 92.802 1227.41 93.4461C1227.13 94.8215 1226.86 96.197 1226.56 97.5549C1226.35 98.4429 1225.84 99.1567 1225.23 99.8009C1224.37 100.706 1223.42 101.455 1222.35 102.064C1218.26 104.397 1214.17 106.73 1210.08 109.063C1209.45 109.411 1208.82 109.76 1208.15 110.108C1207.81 101.089 1207.47 92.0533 1207.11 83C1206.06 83.5919 1205.27 84.4102 1204.64 85.4026C1203.89 86.5691 1203.43 87.8575 1203.21 89.2503C1202.9 91.0435 1202.56 92.8194 1202.24 94.6126C1202.19 94.9086 1202.12 95.1872 1202.09 95.4831C1202.07 95.6921 1201.97 95.8139 1201.78 95.9184C1201.13 96.2666 1200.5 96.6322 1199.87 96.9978C1199.39 97.2764 1199.29 97.7465 1199.56 98.2862C1199.77 98.704 1200.26 98.8433 1200.71 98.617C1200.98 98.4777 1201.23 98.3036 1201.57 98.1121C1201.47 98.6692 1201.4 99.1567 1201.32 99.6442C1201.08 100.95 1200.86 102.256 1200.62 103.561C1200.59 103.701 1200.48 103.857 1200.36 103.927C1199.82 104.293 1199.26 104.658 1198.71 105.007C1198.3 105.268 1198.18 105.72 1198.41 106.19C1198.63 106.643 1199.04 106.817 1199.5 106.626C1199.72 106.539 1199.92 106.399 1200.19 106.26C1200.06 107.044 1199.92 107.775 1199.79 108.489C1199.36 110.769 1198.93 113.05 1198.52 115.348C1198.49 115.557 1198.37 115.627 1198.22 115.714C1195.66 117.159 1193.09 118.604 1190.55 120.066C1189.25 120.798 1188.06 121.668 1187.11 122.835C1186.55 123.531 1186.1 124.297 1186.03 125.237C1185.98 125.76 1186.07 125.881 1186.53 126.125C1187.55 126.647 1188.62 126.595 1189.71 126.369C1191.3 126.055 1192.73 125.359 1194.13 124.558C1196.43 123.252 1198.73 121.964 1201.03 120.658C1201.13 120.606 1201.28 120.589 1201.39 120.624C1203.13 121.303 1204.88 121.999 1206.62 122.695C1207.54 123.061 1208.48 123.427 1209.4 123.81C1209.53 123.862 1209.67 123.931 1209.84 124.071C1209.65 124.158 1209.46 124.245 1209.28 124.332C1208.87 124.558 1208.71 124.993 1208.9 125.446C1209.09 125.916 1209.46 126.125 1209.92 126.003C1210.06 125.968 1210.2 125.899 1210.33 125.812C1210.84 125.533 1211.36 125.22 1211.88 124.941C1211.99 124.889 1212.14 124.854 1212.24 124.889C1213.89 125.516 1215.53 126.16 1217.17 126.804C1217.2 126.804 1217.23 126.839 1217.32 126.891C1217.03 127.048 1216.76 127.187 1216.5 127.344C1216.02 127.622 1215.91 128.092 1216.2 128.615C1216.42 129.05 1216.89 129.189 1217.35 128.946C1218 128.597 1218.63 128.232 1219.26 127.866C1219.45 127.762 1219.59 127.762 1219.79 127.831C1221.9 128.684 1224.02 129.572 1226.15 130.373C1228.26 131.157 1230.41 131.244 1232.5 130.251C1232.57 130.217 1232.62 130.182 1232.69 130.147C1232.71 130.147 1232.74 130.112 1232.79 130.06C1225.46 124.976 1218.17 119.892 1210.83 114.774C1210.96 114.704 1211.05 114.634 1211.15 114.582C1215.45 112.162 1219.74 109.742 1224.02 107.305C1225.18 106.643 1226.33 106.016 1227.63 105.651C1228.57 105.39 1229.54 105.181 1230.51 105.407C1231.16 105.564 1231.77 105.825 1232.4 106.051C1233.66 106.521 1234.92 106.991 1236.18 107.461C1236.68 107.635 1237.17 107.844 1237.68 107.949C1238.45 108.106 1239.42 107.879 1240.05 107.461C1239.4 106.73 1238.76 105.999 1238.13 105.268C1236.42 103.335 1234.72 101.403 1233.03 99.4701C1232.89 99.3134 1232.79 99.1219 1232.74 98.9304C1231.79 95.5702 1230.85 92.21 1229.91 88.8672C1229.9 88.7976 1229.86 88.7106 1229.83 88.6061H1229.76Z" fill="#1A97D4"/>
</g>
<g clip-path="url(#clip10_7_6259)">
<path d="M1597.43 158.46C1597.43 158.46 1560.83 244.03 1490.75 197.39C1420.66 150.76 1356.9 15.1 1243.28 91.2299" stroke="#1A97D4" stroke-width="2" stroke-miterlimit="10" stroke-dasharray="13 2"/>
</g>
</g>
<g opacity="0.2">
<g clip-path="url(#clip11_7_6259)">
<path d="M598.46 494.09C598.473 492.779 598.015 491.727 596.954 490.918C596.439 490.522 595.934 490.073 595.445 489.633C594.39 488.709 593.335 487.786 592.312 486.841C591.646 486.22 591.283 485.42 591.032 484.567C590.674 483.376 590.503 482.176 590.512 480.941C590.536 476.233 590.56 471.525 590.585 466.817C590.598 466.097 590.612 465.377 590.643 464.627C598.624 468.841 606.619 473.064 614.639 477.281C614.654 476.07 614.337 474.982 613.793 473.939C613.158 472.707 612.272 471.664 611.177 470.776C609.777 469.614 608.41 468.431 607.019 467.254C606.788 467.061 606.581 466.863 606.341 466.686C606.169 466.566 606.114 466.417 606.118 466.202C606.14 465.468 606.139 464.739 606.137 464.01C606.134 463.457 605.778 463.134 605.175 463.1C604.711 463.068 604.343 463.427 604.317 463.923C604.302 464.229 604.325 464.538 604.32 464.928C603.889 464.561 603.501 464.259 603.121 463.941C602.11 463.082 601.09 462.237 600.078 461.377C599.974 461.278 599.89 461.111 599.889 460.973C599.845 460.318 599.81 459.648 599.781 459.002C599.759 458.517 599.427 458.188 598.909 458.144C598.406 458.11 598.051 458.377 597.987 458.871C597.951 459.107 597.97 459.353 597.954 459.659C597.344 459.149 596.778 458.666 596.228 458.191C594.466 456.681 592.704 455.172 590.918 453.669C590.754 453.535 590.754 453.397 590.755 453.22C590.782 450.284 590.817 447.333 590.82 444.403C590.834 442.916 590.676 441.448 590.143 440.038C589.821 439.203 589.38 438.436 588.599 437.907C588.173 437.602 588.024 437.615 587.583 437.891C586.62 438.516 586.128 439.471 585.779 440.529C585.258 442.058 585.145 443.646 585.14 445.257C585.121 447.902 585.087 450.538 585.067 453.183C585.061 453.298 585 453.439 584.918 453.51C583.461 454.676 581.981 455.848 580.509 457.005C579.732 457.619 578.947 458.248 578.155 458.853C578.041 458.945 577.913 459.028 577.707 459.106C577.725 458.9 577.744 458.695 577.762 458.489C577.771 458.021 577.47 457.671 576.985 457.607C576.484 457.534 576.115 457.754 575.991 458.214C575.953 458.349 575.945 458.502 575.952 458.664C575.938 459.246 575.954 459.845 575.931 460.442C575.925 460.557 575.878 460.707 575.797 460.778C574.428 461.896 573.052 462.991 571.676 464.085C571.659 464.115 571.612 464.127 571.524 464.175C571.533 463.845 571.549 463.54 571.541 463.24C571.538 462.687 571.191 462.349 570.594 462.339C570.106 462.313 569.747 462.657 569.728 463.177C569.706 463.912 569.707 464.641 569.709 465.369C569.705 465.584 569.637 465.702 569.475 465.844C567.679 467.248 565.854 468.633 564.095 470.078C562.36 471.516 561.211 473.332 561.023 475.643C561.019 475.719 561.024 475.781 561.02 475.858C561.011 475.872 561.024 475.919 561.044 475.99C569.11 472.186 577.159 468.412 585.264 464.611C585.257 464.764 585.274 464.872 585.268 464.987C585.217 469.916 585.166 474.845 585.138 479.767C585.132 481.102 585.095 482.418 584.764 483.723C584.522 484.665 584.217 485.611 583.536 486.339C583.076 486.821 582.543 487.222 582.032 487.655C580.994 488.512 579.957 489.369 578.919 490.226C578.521 490.566 578.093 490.89 577.747 491.28C577.228 491.866 576.939 492.82 576.985 493.575C577.942 493.38 578.899 493.185 579.848 493.005C582.373 492.495 584.899 491.986 587.416 491.491C587.62 491.451 587.837 491.459 588.028 491.51C591.415 492.364 594.794 493.232 598.158 494.092C598.226 494.112 598.319 494.126 598.426 494.149L598.46 494.09Z" fill="#1A97D4"/>
</g>
<g clip-path="url(#clip12_7_6259)">
<path d="M354.13 777.575C354.13 777.575 298.324 703.094 373.755 665.722C449.183 628.338 598.548 640.95 589.427 504.487" stroke="#1A97D4" stroke-width="2" stroke-miterlimit="10" stroke-dasharray="13 2"/>
</g>
</g>
<defs>
<filter id="filter0_b_7_6259" x="-140" y="-140" width="1720" height="860" filterUnits="userSpaceOnUse" color-interpolation-filters="sRGB">
<feFlood flood-opacity="0" result="BackgroundImageFix"/>
<feGaussianBlur in="BackgroundImageFix" stdDeviation="70"/>
<feComposite in2="SourceAlpha" operator="in" result="effect1_backgroundBlur_7_6259"/>
<feBlend mode="normal" in="SourceGraphic" in2="effect1_backgroundBlur_7_6259" result="shape"/>
</filter>
<clipPath id="clip0_7_6259">
<rect width="21" height="21" fill="white" transform="matrix(-1 0 0 -1 462.596 399.749)"/>
</clipPath>
<clipPath id="clip1_7_6259">
<rect width="21" height="21" fill="white" transform="translate(516.989 54.5586) rotate(-130.918)"/>
</clipPath>
<clipPath id="clip2_7_6259">
<rect width="21" height="21" fill="white" transform="matrix(-1 0 0 -1 1232.6 279.749)"/>
</clipPath>
<clipPath id="clip3_7_6259">
<rect width="21" height="21" fill="white" transform="translate(1112 557.813) rotate(-130.918)"/>
</clipPath>
<clipPath id="clip4_7_6259">
<rect width="22.4076" height="21.53" fill="white" transform="matrix(-1 0 0 -1 531.596 418.749)"/>
</clipPath>
<clipPath id="clip5_7_6259">
<rect width="22.4076" height="21.53" fill="white" transform="translate(547.824 119.144) rotate(-130.918)"/>
</clipPath>
<clipPath id="clip6_7_6259">
<rect width="22.4076" height="21.53" fill="white" transform="translate(971.035 546.335) rotate(-130.918)"/>
</clipPath>
<clipPath id="clip7_7_6259">
<rect width="22.4076" height="21.53" fill="white" transform="translate(1294 175.482) rotate(165)"/>
</clipPath>
<clipPath id="clip8_7_6259">
<rect width="22.4076" height="21.53" fill="white" transform="translate(1231 535.922) rotate(-145.918)"/>
</clipPath>
<clipPath id="clip9_7_6259">
<rect width="54" height="48" fill="white" transform="translate(1186 83)"/>
</clipPath>
<clipPath id="clip10_7_6259">
<rect width="354.89" height="143.8" fill="white" transform="translate(1243 68)"/>
</clipPath>
<clipPath id="clip11_7_6259">
<rect width="54" height="48" fill="white" transform="translate(625.195 458.996) rotate(120)"/>
</clipPath>
<clipPath id="clip12_7_6259">
<rect width="354.89" height="143.8" fill="white" transform="translate(609.685 515.859) rotate(120)"/>
</clipPath>
</defs>
</svg>
