<svg width="19" height="19" viewBox="0 0 19 19" fill="none" xmlns="http://www.w3.org/2000/svg">
<g clip-path="url(#clip0_1084_1232)">
<path d="M9.79528 18.1487C14.7656 18.1487 18.7949 14.1194 18.7949 9.14904C18.7949 4.17868 14.7656 0.149414 9.79528 0.149414C4.82492 0.149414 0.795654 4.17868 0.795654 9.14904C0.795654 14.1194 4.82492 18.1487 9.79528 18.1487Z" fill="white"/>
<path d="M18.2804 6.14795H12.7352C12.9761 8.0705 12.9775 10.1889 12.7399 12.1138H18.2922C18.6164 11.1852 18.7946 10.1879 18.7946 9.1488C18.7947 8.09607 18.6124 7.08656 18.2804 6.14795Z" fill="#EFECEC"/>
<path d="M12.7352 6.14784H18.2803C18.2795 6.14499 18.2786 6.14259 18.2775 6.14001C17.1257 2.89224 14.1628 0.502736 10.6029 0.185547C11.9806 0.94069 12.3831 3.33319 12.7352 6.14784Z" fill="#429945"/>
<path d="M10.6031 18.1113C14.1694 17.7936 17.1364 15.3958 18.2838 12.1393C18.2868 12.1307 18.2893 12.1221 18.2924 12.1138H12.74C12.3905 14.9437 11.9864 17.353 10.6031 18.1113Z" fill="#0B0B0B"/>
<path d="M0.7948 9.1488C0.7948 10.188 0.973287 11.1852 1.29713 12.1138H13.2031C13.441 10.1887 13.4393 8.0705 13.1987 6.14795H1.3091C0.977125 7.0866 0.7948 8.09611 0.7948 9.1488Z" fill="#EFEFEF"/>
<path d="M1.31193 6.14008C1.3111 6.14263 1.31022 6.14506 1.30908 6.14791H13.1987C12.8463 3.33322 11.9806 0.940761 10.6031 0.185618C10.3366 0.16202 10.0672 0.148682 9.79463 0.148682C5.8795 0.148644 2.5501 2.6491 1.31193 6.14008Z" fill="#49A948"/>
<path d="M13.2031 12.1138H1.29712C1.30012 12.1222 1.30293 12.1307 1.30578 12.1393C2.53901 15.6393 5.8732 18.1486 9.7946 18.1486C10.0672 18.1486 10.3366 18.1352 10.603 18.1113C11.9864 17.3531 12.8537 14.9437 13.2031 12.1138Z" fill="#151515"/>
<path d="M0.7948 9.1487C0.7948 12.895 3.08481 16.106 6.34102 17.4607V0.836426C3.08481 2.19083 0.7948 5.40186 0.7948 9.1487Z" fill="#E73B36"/>
</g>
<defs>
<clipPath id="clip0_1084_1232">
<rect width="18" height="18" fill="white" transform="translate(0.7948 0.148682)"/>
</clipPath>
</defs>
</svg>
