<svg width="27" height="21" viewBox="0 0 27 21" fill="none" xmlns="http://www.w3.org/2000/svg">
<path fill-rule="evenodd" clip-rule="evenodd" d="M2.40839 7.38747L21.2297 0.542908V4.84337L26.2626 6.67261C26.4975 6.75791 26.6889 6.93303 26.7947 7.15945C26.9005 7.38587 26.912 7.64504 26.8267 7.87995C26.7414 8.11486 26.5662 8.30626 26.3398 8.41205C26.1134 8.51784 25.8542 8.52935 25.6193 8.44405L24.9987 8.21791V18.8654H25.9409C26.1909 18.8654 26.4305 18.9647 26.6072 19.1414C26.7839 19.3181 26.8832 19.5578 26.8832 19.8077C26.8832 20.0576 26.7839 20.2972 26.6072 20.4739C26.4305 20.6507 26.1909 20.7499 25.9409 20.7499H1.44226C1.19236 20.7499 0.952688 20.6507 0.775981 20.4739C0.599273 20.2972 0.5 20.0576 0.5 19.8077C0.5 19.5578 0.599273 19.3181 0.775981 19.1414C0.952688 18.9647 1.19236 18.8654 1.44226 18.8654H2.38451V7.39626L2.40839 7.38872V7.38747ZM21.2297 18.8642V6.84724L23.1142 7.53194V18.8642H21.2297ZM9.92257 11.3261C9.67267 11.3261 9.43301 11.4254 9.2563 11.6021C9.07959 11.7788 8.98032 12.0185 8.98032 12.2684V17.9219C8.98032 18.442 9.40245 18.8642 9.92257 18.8642H13.6916C13.9415 18.8642 14.1812 18.7649 14.3579 18.5882C14.5346 18.4115 14.6339 18.1718 14.6339 17.9219V12.2684C14.6339 12.0185 14.5346 11.7788 14.3579 11.6021C14.1812 11.4254 13.9415 11.3261 13.6916 11.3261H9.92257Z" fill="#1A97D4"/>
</svg>
