<svg width="28" height="25" viewBox="0 0 28 25" fill="none" xmlns="http://www.w3.org/2000/svg">
<path d="M15.4722 17.9444H12.75C12.0014 17.9444 11.3889 17.3319 11.3889 16.5833H1.87472V22.0278C1.87472 23.525 3.09972 24.75 4.59694 24.75H23.6389C25.1361 24.75 26.3611 23.525 26.3611 22.0278V16.5833H16.8333C16.8333 17.3319 16.2208 17.9444 15.4722 17.9444ZM25 5.69444H19.5556C19.5556 2.68639 17.1192 0.25 14.1111 0.25C11.1031 0.25 8.66667 2.68639 8.66667 5.69444H3.22222C1.725 5.69444 0.5 6.91944 0.5 8.41667V12.5C0.5 14.0108 1.71139 15.2222 3.22222 15.2222H11.3889V13.8611C11.3889 13.1125 12.0014 12.5 12.75 12.5H15.4722C16.2208 12.5 16.8333 13.1125 16.8333 13.8611V15.2222H25C26.4972 15.2222 27.7222 13.9972 27.7222 12.5V8.41667C27.7222 6.91944 26.4972 5.69444 25 5.69444ZM11.3889 5.69444C11.3889 4.19722 12.6139 2.97222 14.1111 2.97222C15.6083 2.97222 16.8333 4.19722 16.8333 5.69444H11.3753H11.3889Z" fill="#1A97D4"/>
</svg>
