<svg width="29" height="21" viewBox="0 0 29 21" fill="none" xmlns="http://www.w3.org/2000/svg">
<path d="M27.8432 6.125H24.5691L23.6591 3.85C22.724 1.51102 20.4922 0 17.9727 0H11.0274C8.50848 0 6.27614 1.51102 5.34044 3.85L4.43044 6.125H1.15684C0.729733 6.125 0.416373 6.52641 0.52028 6.94039L0.848405 8.25289C0.921139 8.54492 1.18364 8.75 1.48497 8.75H2.58255C1.84809 9.39148 1.37505 10.3239 1.37505 11.375V14C1.37505 14.8816 1.71192 15.6773 2.25005 16.293V19.25C2.25005 20.2163 3.03372 21 4.00005 21H5.75004C6.71637 21 7.50004 20.2163 7.50004 19.25V17.5H21.5V19.25C21.5 20.2163 22.2837 21 23.25 21H25C25.9664 21 26.75 20.2163 26.75 19.25V16.293C27.2882 15.6778 27.625 14.8821 27.625 14V11.375C27.625 10.3239 27.152 9.39148 26.4181 8.75H27.5157C27.817 8.75 28.0795 8.54492 28.1522 8.25289L28.4804 6.94039C28.5837 6.52641 28.2704 6.125 27.8432 6.125ZM8.58997 5.14992C8.98864 4.15352 9.95387 3.5 11.0274 3.5H17.9727C19.0462 3.5 20.0115 4.15352 20.4101 5.14992L21.5 7.875H7.50004L8.58997 5.14992ZM5.75004 13.9891C4.70005 13.9891 4.00005 13.2912 4.00005 12.2445C4.00005 11.1978 4.70005 10.5 5.75004 10.5C6.80005 10.5 8.37505 12.0701 8.37505 13.1168C8.37505 14.1635 6.80005 13.9891 5.75004 13.9891ZM23.25 13.9891C22.2 13.9891 20.625 14.1635 20.625 13.1168C20.625 12.0701 22.2 10.5 23.25 10.5C24.3 10.5 25 11.1978 25 12.2445C25 13.2912 24.3 13.9891 23.25 13.9891Z" fill="#1A97D4"/>
</svg>
