<svg width="25" height="25" viewBox="0 0 25 25" fill="none" xmlns="http://www.w3.org/2000/svg">
<path d="M0.25 1.78125C0.25 0.934277 0.934277 0.25 1.78125 0.25H23.2188C24.0657 0.25 24.75 0.934277 24.75 1.78125C24.75 2.62822 24.0657 3.3125 23.2188 3.3125V21.6875C24.0657 21.6875 24.75 22.3718 24.75 23.2188C24.75 24.0657 24.0657 24.75 23.2188 24.75H14.7969V22.4531C14.7969 21.1851 13.7681 20.1562 12.5 20.1562C11.2319 20.1562 10.2031 21.1851 10.2031 22.4531V24.75H1.78125C0.934277 24.75 0.25 24.0657 0.25 23.2188C0.25 22.3718 0.934277 21.6875 1.78125 21.6875V3.3125C0.934277 3.3125 0.25 2.62822 0.25 1.78125ZM4.84375 5.60938V7.14062C4.84375 7.56172 5.18828 7.90625 5.60938 7.90625H7.14062C7.56172 7.90625 7.90625 7.56172 7.90625 7.14062V5.60938C7.90625 5.18828 7.56172 4.84375 7.14062 4.84375H5.60938C5.18828 4.84375 4.84375 5.18828 4.84375 5.60938ZM11.7344 4.84375C11.3133 4.84375 10.9688 5.18828 10.9688 5.60938V7.14062C10.9688 7.56172 11.3133 7.90625 11.7344 7.90625H13.2656C13.6867 7.90625 14.0312 7.56172 14.0312 7.14062V5.60938C14.0312 5.18828 13.6867 4.84375 13.2656 4.84375H11.7344ZM17.0938 5.60938V7.14062C17.0938 7.56172 17.4383 7.90625 17.8594 7.90625H19.3906C19.8117 7.90625 20.1562 7.56172 20.1562 7.14062V5.60938C20.1562 5.18828 19.8117 4.84375 19.3906 4.84375H17.8594C17.4383 4.84375 17.0938 5.18828 17.0938 5.60938ZM5.60938 9.4375C5.18828 9.4375 4.84375 9.78203 4.84375 10.2031V11.7344C4.84375 12.1555 5.18828 12.5 5.60938 12.5H7.14062C7.56172 12.5 7.90625 12.1555 7.90625 11.7344V10.2031C7.90625 9.78203 7.56172 9.4375 7.14062 9.4375H5.60938ZM10.9688 10.2031V11.7344C10.9688 12.1555 11.3133 12.5 11.7344 12.5H13.2656C13.6867 12.5 14.0312 12.1555 14.0312 11.7344V10.2031C14.0312 9.78203 13.6867 9.4375 13.2656 9.4375H11.7344C11.3133 9.4375 10.9688 9.78203 10.9688 10.2031ZM17.8594 9.4375C17.4383 9.4375 17.0938 9.78203 17.0938 10.2031V11.7344C17.0938 12.1555 17.4383 12.5 17.8594 12.5H19.3906C19.8117 12.5 20.1562 12.1555 20.1562 11.7344V10.2031C20.1562 9.78203 19.8117 9.4375 19.3906 9.4375H17.8594ZM15.9453 18.625C16.5817 18.625 17.1081 18.1034 16.9502 17.4861C16.443 15.5003 14.6438 14.0312 12.5 14.0312C10.3562 14.0312 8.55225 15.5003 8.0498 17.4861C7.89189 18.0986 8.42305 18.625 9.05469 18.625H15.9453Z" fill="#1A97D4"/>
</svg>
